<svg width="158" height="34" viewBox="0 0 158 34" fill="none" xmlns="http://www.w3.org/2000/svg">
<rect x="0.5" y="0.5" width="153" height="33" rx="9.5" fill="white" stroke="#E1E4E8"/>
<path d="M12.3616 19.1107C12.3616 20.0358 11.6059 20.7915 10.6808 20.7915C9.7557 20.7915 9 20.0358 9 19.1107C9 18.1857 9.7557 17.43 10.6808 17.43H12.3616V19.1107Z" fill="#E01E5A"/>
<path d="M13.2085 19.1107C13.2085 18.1857 13.9642 17.43 14.8892 17.43C15.8143 17.43 16.57 18.1857 16.57 19.1107V23.3192C16.57 24.2443 15.8143 25 14.8892 25C13.9642 25 13.2085 24.2443 13.2085 23.3192V19.1107Z" fill="#E01E5A"/>
<path d="M14.8892 12.3616C13.9642 12.3616 13.2085 11.6059 13.2085 10.6808C13.2085 9.7557 13.9642 9 14.8892 9C15.8143 9 16.57 9.7557 16.57 10.6808V12.3616H14.8892Z" fill="#36C5F0"/>
<path d="M14.8893 13.2085C15.8143 13.2085 16.57 13.9642 16.57 14.8892C16.57 15.8143 15.8143 16.57 14.8893 16.57H10.6808C9.7557 16.57 9 15.8143 9 14.8892C9 13.9642 9.7557 13.2085 10.6808 13.2085H14.8893Z" fill="#36C5F0"/>
<path d="M21.6385 14.8892C21.6385 13.9642 22.3942 13.2085 23.3192 13.2085C24.2443 13.2085 25 13.9642 25 14.8892C25 15.8143 24.2443 16.57 23.3192 16.57H21.6385V14.8892Z" fill="#2EB67D"/>
<path d="M20.7916 14.8893C20.7916 15.8143 20.0359 16.57 19.1108 16.57C18.1857 16.57 17.43 15.8143 17.43 14.8893V10.6808C17.43 9.7557 18.1857 9 19.1108 9C20.0359 9 20.7916 9.7557 20.7916 10.6808V14.8893Z" fill="#2EB67D"/>
<path d="M19.1108 21.6385C20.0359 21.6385 20.7916 22.3942 20.7916 23.3192C20.7916 24.2443 20.0359 25 19.1108 25C18.1857 25 17.43 24.2443 17.43 23.3192V21.6385H19.1108Z" fill="#ECB22E"/>
<path d="M19.1108 20.7915C18.1857 20.7915 17.43 20.0358 17.43 19.1107C17.43 18.1857 18.1857 17.43 19.1108 17.43H23.3192C24.2443 17.43 25 18.1857 25 19.1107C25 20.0358 24.2443 20.7915 23.3192 20.7915H19.1108Z" fill="#ECB22E"/>
<path d="M39.12 15.014H40.45C40.3753 14.482 40.2167 14.0153 39.974 13.614C39.7313 13.2033 39.428 12.8627 39.064 12.592C38.7 12.3213 38.2847 12.116 37.818 11.976C37.3513 11.836 36.8567 11.766 36.334 11.766C35.5687 11.766 34.8873 11.906 34.29 12.186C33.702 12.4567 33.2073 12.83 32.806 13.306C32.414 13.782 32.1153 14.342 31.91 14.986C31.7047 15.6207 31.602 16.302 31.602 17.03C31.602 17.758 31.6953 18.4393 31.882 19.074C32.078 19.7087 32.3673 20.2593 32.75 20.726C33.1327 21.1927 33.6133 21.5613 34.192 21.832C34.7707 22.0933 35.4473 22.224 36.222 22.224C37.5007 22.224 38.5087 21.874 39.246 21.174C39.9833 20.474 40.4173 19.494 40.548 18.234H39.218C39.19 18.6447 39.106 19.0273 38.966 19.382C38.826 19.7367 38.63 20.0447 38.378 20.306C38.1353 20.558 37.8413 20.7587 37.496 20.908C37.16 21.048 36.7727 21.118 36.334 21.118C35.7367 21.118 35.2233 21.006 34.794 20.782C34.3647 20.558 34.01 20.2593 33.73 19.886C33.4593 19.5033 33.2587 19.06 33.128 18.556C32.9973 18.0427 32.932 17.5013 32.932 16.932C32.932 16.4093 32.9973 15.9053 33.128 15.42C33.2587 14.9347 33.4593 14.5053 33.73 14.132C34.01 13.7493 34.36 13.446 34.78 13.222C35.2093 12.998 35.7227 12.886 36.32 12.886C37.02 12.886 37.622 13.0633 38.126 13.418C38.6393 13.7727 38.9707 14.3047 39.12 15.014ZM42.8675 18.388C42.8675 17.9493 42.9235 17.562 43.0355 17.226C43.1568 16.8807 43.3202 16.5913 43.5255 16.358C43.7308 16.1247 43.9688 15.9473 44.2395 15.826C44.5195 15.7047 44.8135 15.644 45.1215 15.644C45.4295 15.644 45.7188 15.7047 45.9895 15.826C46.2695 15.9473 46.5122 16.1247 46.7175 16.358C46.9228 16.5913 47.0815 16.8807 47.1935 17.226C47.3148 17.562 47.3755 17.9493 47.3755 18.388C47.3755 18.8267 47.3148 19.2187 47.1935 19.564C47.0815 19.9 46.9228 20.1847 46.7175 20.418C46.5122 20.642 46.2695 20.8147 45.9895 20.936C45.7188 21.0573 45.4295 21.118 45.1215 21.118C44.8135 21.118 44.5195 21.0573 44.2395 20.936C43.9688 20.8147 43.7308 20.642 43.5255 20.418C43.3202 20.1847 43.1568 19.9 43.0355 19.564C42.9235 19.2187 42.8675 18.8267 42.8675 18.388ZM41.6075 18.388C41.6075 18.92 41.6822 19.4147 41.8315 19.872C41.9808 20.3293 42.2048 20.7307 42.5035 21.076C42.8022 21.412 43.1708 21.678 43.6095 21.874C44.0482 22.0607 44.5522 22.154 45.1215 22.154C45.7002 22.154 46.2042 22.0607 46.6335 21.874C47.0722 21.678 47.4408 21.412 47.7395 21.076C48.0382 20.7307 48.2622 20.3293 48.4115 19.872C48.5608 19.4147 48.6355 18.92 48.6355 18.388C48.6355 17.856 48.5608 17.3613 48.4115 16.904C48.2622 16.4373 48.0382 16.036 47.7395 15.7C47.4408 15.3547 47.0722 15.084 46.6335 14.888C46.2042 14.692 45.7002 14.594 45.1215 14.594C44.5522 14.594 44.0482 14.692 43.6095 14.888C43.1708 15.084 42.8022 15.3547 42.5035 15.7C42.2048 16.036 41.9808 16.4373 41.8315 16.904C41.6822 17.3613 41.6075 17.856 41.6075 18.388ZM50.0386 14.762V22H51.2286V17.492C51.2286 17.352 51.2612 17.1793 51.3266 16.974C51.4012 16.7593 51.5132 16.554 51.6626 16.358C51.8212 16.162 52.0219 15.994 52.2646 15.854C52.5166 15.714 52.8152 15.644 53.1606 15.644C53.4312 15.644 53.6506 15.686 53.8186 15.77C53.9959 15.8447 54.1359 15.9567 54.2386 16.106C54.3412 16.246 54.4112 16.414 54.4486 16.61C54.4952 16.806 54.5186 17.0207 54.5186 17.254V22H55.7086V17.492C55.7086 16.932 55.8766 16.484 56.2126 16.148C56.5486 15.812 57.0106 15.644 57.5986 15.644C57.8879 15.644 58.1212 15.686 58.2986 15.77C58.4852 15.854 58.6299 15.9707 58.7326 16.12C58.8352 16.26 58.9052 16.428 58.9426 16.624C58.9799 16.82 58.9986 17.03 58.9986 17.254V22H60.1886V16.694C60.1886 16.3207 60.1279 16.0033 60.0066 15.742C59.8946 15.4713 59.7312 15.252 59.5166 15.084C59.3112 14.916 59.0592 14.7947 58.7606 14.72C58.4712 14.636 58.1446 14.594 57.7806 14.594C57.3046 14.594 56.8659 14.7013 56.4646 14.916C56.0726 15.1307 55.7552 15.434 55.5126 15.826C55.3632 15.378 55.1066 15.0607 54.7426 14.874C54.3786 14.6873 53.9726 14.594 53.5246 14.594C52.5072 14.594 51.7279 15.0047 51.1866 15.826H51.1586V14.762H50.0386ZM61.9741 14.762V22H63.1641V17.492C63.1641 17.352 63.1968 17.1793 63.2621 16.974C63.3368 16.7593 63.4488 16.554 63.5981 16.358C63.7568 16.162 63.9575 15.994 64.2001 15.854C64.4521 15.714 64.7508 15.644 65.0961 15.644C65.3668 15.644 65.5861 15.686 65.7541 15.77C65.9315 15.8447 66.0715 15.9567 66.1741 16.106C66.2768 16.246 66.3468 16.414 66.3841 16.61C66.4308 16.806 66.4541 17.0207 66.4541 17.254V22H67.6441V17.492C67.6441 16.932 67.8121 16.484 68.1481 16.148C68.4841 15.812 68.9461 15.644 69.5341 15.644C69.8235 15.644 70.0568 15.686 70.2341 15.77C70.4208 15.854 70.5655 15.9707 70.6681 16.12C70.7708 16.26 70.8408 16.428 70.8781 16.624C70.9155 16.82 70.9341 17.03 70.9341 17.254V22H72.1241V16.694C72.1241 16.3207 72.0635 16.0033 71.9421 15.742C71.8301 15.4713 71.6668 15.252 71.4521 15.084C71.2468 14.916 70.9948 14.7947 70.6961 14.72C70.4068 14.636 70.0801 14.594 69.7161 14.594C69.2401 14.594 68.8015 14.7013 68.4001 14.916C68.0081 15.1307 67.6908 15.434 67.4481 15.826C67.2988 15.378 67.0421 15.0607 66.6781 14.874C66.3141 14.6873 65.9081 14.594 65.4601 14.594C64.4428 14.594 63.6635 15.0047 63.1221 15.826H63.0941V14.762H61.9741ZM79.9017 22V14.762H78.7117V18.85C78.7117 19.1767 78.665 19.48 78.5717 19.76C78.4877 20.0307 78.357 20.2687 78.1797 20.474C78.0023 20.6793 77.7783 20.838 77.5077 20.95C77.2463 21.062 76.9337 21.118 76.5697 21.118C76.1123 21.118 75.753 20.9873 75.4917 20.726C75.2303 20.4647 75.0997 20.11 75.0997 19.662V14.762H73.9097V19.522C73.9097 19.914 73.947 20.2733 74.0217 20.6C74.1057 20.9173 74.2457 21.1927 74.4417 21.426C74.6377 21.6593 74.8943 21.8413 75.2117 21.972C75.529 22.0933 75.9257 22.154 76.4017 22.154C76.9337 22.154 77.3957 22.0513 77.7877 21.846C78.1797 21.6313 78.5017 21.3 78.7537 20.852H78.7817V22H79.9017ZM81.689 14.762V22H82.879V17.912C82.879 17.5853 82.921 17.2867 83.005 17.016C83.0983 16.736 83.2336 16.4933 83.411 16.288C83.5883 16.0827 83.8076 15.924 84.069 15.812C84.3396 15.7 84.657 15.644 85.021 15.644C85.4783 15.644 85.8376 15.7747 86.099 16.036C86.3603 16.2973 86.491 16.652 86.491 17.1V22H87.681V17.24C87.681 16.848 87.639 16.4933 87.555 16.176C87.4803 15.8493 87.345 15.5693 87.149 15.336C86.953 15.1027 86.6963 14.9207 86.379 14.79C86.0616 14.6593 85.665 14.594 85.189 14.594C84.1156 14.594 83.3316 15.0327 82.837 15.91H82.809V14.762H81.689ZM90.7283 13.46V12.004H89.5383V13.46H90.7283ZM89.5383 14.762V22H90.7283V14.762H89.5383ZM94.2238 14.762V12.592H93.0338V14.762H91.8018V15.812H93.0338V20.418C93.0338 20.754 93.0664 21.0247 93.1318 21.23C93.1971 21.4353 93.2951 21.594 93.4258 21.706C93.5658 21.818 93.7431 21.8973 93.9578 21.944C94.1818 21.9813 94.4478 22 94.7558 22H95.6658V20.95H95.1198C94.9331 20.95 94.7791 20.9453 94.6578 20.936C94.5458 20.9173 94.4571 20.8847 94.3918 20.838C94.3264 20.7913 94.2798 20.726 94.2518 20.642C94.2331 20.558 94.2238 20.446 94.2238 20.306V15.812H95.6658V14.762H94.2238ZM99.8298 22.966C99.6898 23.3207 99.5498 23.6193 99.4098 23.862C99.2791 24.1047 99.1298 24.3007 98.9618 24.45C98.8031 24.6087 98.6211 24.7207 98.4158 24.786C98.2198 24.8607 97.9911 24.898 97.7298 24.898C97.5898 24.898 97.4498 24.8887 97.3098 24.87C97.1698 24.8513 97.0345 24.8187 96.9038 24.772V23.68C97.0065 23.7267 97.1231 23.764 97.2538 23.792C97.3938 23.8293 97.5105 23.848 97.6038 23.848C97.8465 23.848 98.0471 23.7873 98.2058 23.666C98.3738 23.554 98.4998 23.3907 98.5838 23.176L99.0738 21.958L96.2038 14.762H97.5478L99.6618 20.684H99.6898L101.72 14.762H102.98L99.8298 22.966ZM109.452 18.682H107.324C107.315 19.298 107.427 19.83 107.66 20.278C107.894 20.726 108.206 21.0947 108.598 21.384C109 21.6733 109.457 21.8833 109.97 22.014C110.493 22.154 111.03 22.224 111.58 22.224C112.262 22.224 112.859 22.1447 113.372 21.986C113.895 21.8273 114.329 21.608 114.674 21.328C115.029 21.0387 115.295 20.698 115.472 20.306C115.65 19.914 115.738 19.4893 115.738 19.032C115.738 18.472 115.617 18.0147 115.374 17.66C115.141 17.296 114.861 17.0067 114.534 16.792C114.208 16.5773 113.876 16.4233 113.54 16.33C113.214 16.2273 112.957 16.1573 112.77 16.12C112.145 15.9613 111.636 15.8307 111.244 15.728C110.862 15.6253 110.558 15.5227 110.334 15.42C110.12 15.3173 109.975 15.2053 109.9 15.084C109.826 14.9627 109.788 14.804 109.788 14.608C109.788 14.3933 109.835 14.216 109.928 14.076C110.022 13.936 110.138 13.8193 110.278 13.726C110.428 13.6327 110.591 13.5673 110.768 13.53C110.946 13.4927 111.123 13.474 111.3 13.474C111.571 13.474 111.818 13.4973 112.042 13.544C112.276 13.5907 112.481 13.67 112.658 13.782C112.836 13.894 112.976 14.048 113.078 14.244C113.19 14.44 113.256 14.6873 113.274 14.986H115.402C115.402 14.4073 115.29 13.9173 115.066 13.516C114.852 13.1053 114.558 12.7693 114.184 12.508C113.811 12.2467 113.382 12.06 112.896 11.948C112.42 11.8267 111.921 11.766 111.398 11.766C110.95 11.766 110.502 11.8267 110.054 11.948C109.606 12.0693 109.205 12.256 108.85 12.508C108.496 12.76 108.206 13.0773 107.982 13.46C107.768 13.8333 107.66 14.2767 107.66 14.79C107.66 15.2473 107.744 15.6393 107.912 15.966C108.09 16.2833 108.318 16.5493 108.598 16.764C108.878 16.9787 109.196 17.156 109.55 17.296C109.905 17.4267 110.269 17.5387 110.642 17.632C111.006 17.7347 111.366 17.828 111.72 17.912C112.075 17.996 112.392 18.094 112.672 18.206C112.952 18.318 113.176 18.458 113.344 18.626C113.522 18.794 113.61 19.0133 113.61 19.284C113.61 19.536 113.545 19.746 113.414 19.914C113.284 20.0727 113.12 20.1987 112.924 20.292C112.728 20.3853 112.518 20.4507 112.294 20.488C112.07 20.516 111.86 20.53 111.664 20.53C111.375 20.53 111.095 20.4973 110.824 20.432C110.554 20.3573 110.316 20.25 110.11 20.11C109.914 19.9607 109.756 19.7693 109.634 19.536C109.513 19.3027 109.452 19.018 109.452 18.682ZM116.892 12.004V22H118.88V12.004H116.892ZM120.361 16.988C120.389 16.5213 120.506 16.134 120.711 15.826C120.917 15.518 121.178 15.2707 121.495 15.084C121.813 14.8973 122.167 14.7667 122.559 14.692C122.961 14.608 123.362 14.566 123.763 14.566C124.127 14.566 124.496 14.594 124.869 14.65C125.243 14.6967 125.583 14.7947 125.891 14.944C126.199 15.0933 126.451 15.3033 126.647 15.574C126.843 15.8353 126.941 16.1853 126.941 16.624V20.39C126.941 20.7167 126.96 21.0293 126.997 21.328C127.035 21.6267 127.1 21.8507 127.193 22H125.177C125.14 21.888 125.107 21.776 125.079 21.664C125.061 21.5427 125.047 21.4213 125.037 21.3C124.72 21.6267 124.347 21.8553 123.917 21.986C123.488 22.1167 123.049 22.182 122.601 22.182C122.256 22.182 121.934 22.14 121.635 22.056C121.337 21.972 121.075 21.8413 120.851 21.664C120.627 21.4867 120.45 21.2627 120.319 20.992C120.198 20.7213 120.137 20.3993 120.137 20.026C120.137 19.6153 120.207 19.2793 120.347 19.018C120.497 18.7473 120.683 18.5327 120.907 18.374C121.141 18.2153 121.402 18.0987 121.691 18.024C121.99 17.94 122.289 17.8747 122.587 17.828C122.886 17.7813 123.18 17.744 123.469 17.716C123.759 17.688 124.015 17.646 124.239 17.59C124.463 17.534 124.641 17.4547 124.771 17.352C124.902 17.24 124.963 17.0813 124.953 16.876C124.953 16.6613 124.916 16.4933 124.841 16.372C124.776 16.2413 124.683 16.1433 124.561 16.078C124.449 16.0033 124.314 15.9567 124.155 15.938C124.006 15.91 123.843 15.896 123.665 15.896C123.273 15.896 122.965 15.98 122.741 16.148C122.517 16.316 122.387 16.596 122.349 16.988H120.361ZM124.953 18.458C124.869 18.5327 124.762 18.5933 124.631 18.64C124.51 18.6773 124.375 18.71 124.225 18.738C124.085 18.766 123.936 18.7893 123.777 18.808C123.619 18.8267 123.46 18.85 123.301 18.878C123.152 18.906 123.003 18.9433 122.853 18.99C122.713 19.0367 122.587 19.102 122.475 19.186C122.373 19.2607 122.289 19.3587 122.223 19.48C122.158 19.6013 122.125 19.7553 122.125 19.942C122.125 20.1193 122.158 20.2687 122.223 20.39C122.289 20.5113 122.377 20.6093 122.489 20.684C122.601 20.7493 122.732 20.796 122.881 20.824C123.031 20.852 123.185 20.866 123.343 20.866C123.735 20.866 124.039 20.8007 124.253 20.67C124.468 20.5393 124.627 20.3853 124.729 20.208C124.832 20.0213 124.893 19.8347 124.911 19.648C124.939 19.4613 124.953 19.312 124.953 19.2V18.458ZM133.413 17.31H135.359C135.331 16.8433 135.219 16.442 135.023 16.106C134.827 15.7607 134.57 15.476 134.253 15.252C133.945 15.0187 133.59 14.846 133.189 14.734C132.797 14.622 132.386 14.566 131.957 14.566C131.369 14.566 130.846 14.664 130.389 14.86C129.931 15.056 129.544 15.3313 129.227 15.686C128.909 16.0313 128.667 16.4467 128.499 16.932C128.34 17.408 128.261 17.926 128.261 18.486C128.261 19.0273 128.349 19.5267 128.527 19.984C128.704 20.432 128.951 20.8193 129.269 21.146C129.586 21.4727 129.969 21.7293 130.417 21.916C130.874 22.0933 131.373 22.182 131.915 22.182C132.876 22.182 133.665 21.93 134.281 21.426C134.897 20.922 135.27 20.1893 135.401 19.228H133.483C133.417 19.676 133.254 20.0353 132.993 20.306C132.741 20.5673 132.377 20.698 131.901 20.698C131.593 20.698 131.331 20.628 131.117 20.488C130.902 20.348 130.729 20.1707 130.599 19.956C130.477 19.732 130.389 19.4847 130.333 19.214C130.277 18.9433 130.249 18.6773 130.249 18.416C130.249 18.1453 130.277 17.8747 130.333 17.604C130.389 17.324 130.482 17.072 130.613 16.848C130.753 16.6147 130.93 16.428 131.145 16.288C131.359 16.1387 131.625 16.064 131.943 16.064C132.792 16.064 133.282 16.4793 133.413 17.31ZM136.706 12.004V22H138.694V19.508L139.464 18.766L141.452 22H143.86L140.822 17.422L143.552 14.762H141.2L138.694 17.366V12.004H136.706Z" fill="black"/>
</svg>
