<svg width="293" height="86" viewBox="0 0 293 86" fill="none" xmlns="http://www.w3.org/2000/svg">
<rect x="1" y="1" width="291" height="84.3602" rx="8" fill="#1F1E49" stroke="#2A2A5B"/>
<g filter="url(#filter0_d)">
<path d="M55.0628 19.9373L40.0001 35.0001H48.0801C53.5201 35.0001 56.0001 40.12 56.0001 43.0001V65.7202C56.0001 66.4271 56.5732 67.0002 57.2801 67.0002H70.6401C71.347 67.0002 71.9201 66.4291 71.9211 65.7222C71.9303 59.1392 72.0001 45.5862 72.0001 35.0001C72.0001 25.7233 64.6054 19.7174 57.3236 19.0602C56.4784 18.9839 55.663 19.3372 55.0628 19.9373Z" fill="url(#paint0_linear)"/>
</g>
<g style="mix-blend-mode:lighten" filter="url(#filter1_i)">
<path d="M55.0628 19.9373L40.0001 35.0001H48.0801C53.5201 35.0001 56.0001 40.12 56.0001 43.0001V65.7202C56.0001 66.4271 56.5732 67.0002 57.2801 67.0002H70.6401C71.347 67.0002 71.9201 66.4291 71.9211 65.7222C71.9303 59.1392 72.0001 45.5862 72.0001 35.0001C72.0001 25.7233 64.6054 19.7174 57.3236 19.0602C56.4784 18.9839 55.663 19.3372 55.0628 19.9373Z" fill="black"/>
</g>
<g filter="url(#filter2_d)">
<path fill-rule="evenodd" clip-rule="evenodd" d="M24 20.28C24 19.5731 24.5731 19 25.28 19H26.88C27.5869 19 28.16 19.5731 28.16 20.28V33.72C28.16 34.427 27.5869 35 26.88 35H25.28C24.5731 35 24 34.427 24 33.72V20.28ZM31.2 19C30.4931 19 29.92 19.5731 29.92 20.28V33.72C29.92 34.427 30.4931 35 31.2 35H32.8C33.5069 35 34.08 34.427 34.08 33.72V20.28C34.08 19.5731 33.5069 19 32.8 19H31.2ZM37.12 19C36.4131 19 35.84 19.5731 35.84 20.28V33.72C35.84 34.427 36.4131 35 37.12 35H40V20.28C40 19.5731 39.427 19 38.72 19H37.12ZM24.7498 50.2503C24.2697 50.7304 24 51.3815 24 52.0605V65.7201C24 66.4271 24.5731 67.0001 25.28 67.0001H26.88C27.5869 67.0001 28.16 66.4271 28.16 65.7201V47.6126C28.16 47.3275 27.8153 47.1848 27.6137 47.3864L24.7498 50.2503ZM29.92 46.1404C29.92 45.4615 30.1897 44.8103 30.6698 44.3302L33.5337 41.4663C33.7353 41.2647 34.08 41.4075 34.08 41.6926V65.7201C34.08 66.427 33.5069 67.0001 32.8 67.0001H31.2C30.4931 67.0001 29.92 66.427 29.92 65.7201V46.1404ZM36.5898 38.4103C36.1097 38.8904 35.84 39.5415 35.84 40.2205V65.7201C35.84 66.427 36.4131 67.0001 37.12 67.0001H38.72C39.427 67.0001 40 66.4271 40 65.7201V35.0001L36.5898 38.4103Z" fill="#F5F4F1"/>
</g>
<path d="M94.16 55V30.724H88.244V55H94.16Z" fill="#EBEBF2"/>
<path d="M104.109 36.674H98.431V55H104.245V45.99C104.245 42.114 107.101 40.89 109.583 40.89C112.371 40.89 114.071 42.046 114.071 44.936V55H119.885V43.032C119.885 38.306 116.485 36.232 111.895 36.232C108.801 36.232 106.285 37.082 104.279 38.986H104.109V36.674Z" fill="#EBEBF2"/>
<path d="M134.711 33.784C135.731 33.784 136.241 33.852 136.717 33.92V29.806C136.241 29.738 135.357 29.568 133.623 29.568C128.523 29.568 125.531 30.894 125.531 35.382V36.674H122.369V40.414H125.531V55.034H131.345V40.414H136.309V36.674H131.345V36.096C131.345 33.988 132.807 33.784 134.711 33.784Z" fill="#EBEBF2"/>
<path d="M138.839 36.674V55H144.653V46.976C144.653 42.692 148.053 41.706 151.249 41.706C152.371 41.706 153.425 41.876 154.173 42.046V36.402C153.697 36.266 153.017 36.198 152.405 36.198C148.903 36.198 146.489 37.15 144.687 39.088H144.517V36.674H138.839Z" fill="#EBEBF2"/>
<path d="M177.006 52.042V41.672C177.006 37.286 172.824 36.028 166.942 36.028C161.536 36.028 156.81 37.558 156.674 42.148H162.794C162.93 40.618 164.698 39.972 166.976 39.972C169.798 39.972 170.954 40.652 170.954 41.672C170.954 42.624 170.308 43.032 168.846 43.168L161.264 43.95C157.932 44.29 155.45 45.752 155.45 49.73C155.45 53.878 159.122 55.68 162.998 55.68C166.5 55.68 169.526 54.66 171.328 52.416V53.028C171.328 53.98 171.532 54.694 171.838 55H177.516V54.796C177.04 54.218 177.006 53.096 177.006 52.042ZM171.192 47.01C171.192 50.716 167.316 51.94 164.732 51.94C162.828 51.94 161.468 51.362 161.468 49.696C161.468 48.166 162.522 47.588 164.086 47.384L169.492 46.602C170.104 46.534 170.818 46.398 171.192 46.126V47.01Z" fill="#EBEBF2"/>
<path d="M191.55 51.294C188.082 51.294 186.076 49.356 186.076 45.854C186.076 42.352 188.082 40.414 191.55 40.414C195.256 40.414 196.48 42.012 196.786 43.61H203.144C202.566 39.292 199.54 36.028 191.55 36.028C184.138 36.028 180.058 39.632 180.058 45.854C180.058 52.042 184.138 55.68 191.55 55.68C199.54 55.68 202.634 52.382 203.212 47.996H196.82C196.514 49.696 195.256 51.294 191.55 51.294Z" fill="#EBEBF2"/>
<path d="M217.187 36.028C209.571 36.028 205.491 39.666 205.491 45.854C205.491 52.042 209.571 55.68 217.187 55.68C224.803 55.68 228.883 52.042 228.883 45.854C228.883 39.666 224.803 36.028 217.187 36.028ZM217.187 51.294C213.515 51.294 211.509 49.356 211.509 45.854C211.509 42.352 213.515 40.414 217.187 40.414C220.859 40.414 222.865 42.352 222.865 45.854C222.865 49.356 220.859 51.294 217.187 51.294Z" fill="#EBEBF2"/>
<path d="M246.083 42.148H252.203C252.033 37.558 247.307 36.028 241.425 36.028C235.679 36.028 231.327 37.49 231.327 41.842C231.327 45.616 233.911 46.806 237.821 47.316L244.111 48.132C245.845 48.37 246.559 48.744 246.559 49.832C246.559 51.022 245.233 51.804 241.969 51.804C238.943 51.804 237.073 51.158 236.937 49.016H230.681C230.885 54.388 235.577 55.68 241.867 55.68C248.735 55.68 252.917 54.286 252.917 49.526C252.917 45.446 250.469 44.256 246.491 43.814L239.793 43.032C238.059 42.828 237.481 42.454 237.481 41.502C237.481 40.516 238.671 39.836 241.391 39.836C244.043 39.836 245.947 40.414 246.083 42.148Z" fill="#EBEBF2"/>
<path d="M265.004 50.58C263.542 50.58 262.726 50.172 262.726 48.812V40.414H267.69V36.674H262.726V31.676H256.912V36.674H253.75V40.414H256.912V49.866C256.912 53.878 258.612 55.306 263.848 55.306C265.242 55.306 266.874 55.136 267.656 55V50.41C266.84 50.546 265.65 50.58 265.004 50.58Z" fill="#EBEBF2"/>
<defs>
<filter id="filter0_d" x="39.2001" y="18.4099" width="33.6001" height="49.5503" filterUnits="userSpaceOnUse" color-interpolation-filters="sRGB">
<feFlood flood-opacity="0" result="BackgroundImageFix"/>
<feColorMatrix in="SourceAlpha" type="matrix" values="0 0 0 0 0 0 0 0 0 0 0 0 0 0 0 0 0 0 127 0"/>
<feOffset dy="0.16"/>
<feGaussianBlur stdDeviation="0.400001"/>
<feColorMatrix type="matrix" values="0 0 0 0 0 0 0 0 0 0 0 0 0 0 0 0 0 0 0.5 0"/>
<feBlend mode="normal" in2="BackgroundImageFix" result="effect1_dropShadow"/>
<feBlend mode="normal" in="SourceGraphic" in2="effect1_dropShadow" result="shape"/>
</filter>
<filter id="filter1_i" x="40.0001" y="19.0499" width="32.0001" height="47.9503" filterUnits="userSpaceOnUse" color-interpolation-filters="sRGB">
<feFlood flood-opacity="0" result="BackgroundImageFix"/>
<feBlend mode="normal" in="SourceGraphic" in2="BackgroundImageFix" result="shape"/>
<feColorMatrix in="SourceAlpha" type="matrix" values="0 0 0 0 0 0 0 0 0 0 0 0 0 0 0 0 0 0 127 0" result="hardAlpha"/>
<feOffset dy="1.5"/>
<feComposite in2="hardAlpha" operator="arithmetic" k2="-1" k3="1"/>
<feColorMatrix type="matrix" values="0 0 0 0 1 0 0 0 0 1 0 0 0 0 1 0 0 0 0.5 0"/>
<feBlend mode="normal" in2="shape" result="effect1_innerShadow"/>
</filter>
<filter id="filter2_d" x="23.2" y="18.36" width="17.6" height="49.6001" filterUnits="userSpaceOnUse" color-interpolation-filters="sRGB">
<feFlood flood-opacity="0" result="BackgroundImageFix"/>
<feColorMatrix in="SourceAlpha" type="matrix" values="0 0 0 0 0 0 0 0 0 0 0 0 0 0 0 0 0 0 127 0"/>
<feOffset dy="0.16"/>
<feGaussianBlur stdDeviation="0.400001"/>
<feColorMatrix type="matrix" values="0 0 0 0 0 0 0 0 0 0 0 0 0 0 0 0 0 0 0.5 0"/>
<feBlend mode="normal" in2="BackgroundImageFix" result="effect1_dropShadow"/>
<feBlend mode="normal" in="SourceGraphic" in2="effect1_dropShadow" result="shape"/>
</filter>
<linearGradient id="paint0_linear" x1="72.0001" y1="19.0001" x2="28.9174" y2="33.0737" gradientUnits="userSpaceOnUse">
<stop stop-color="#E7B28C"/>
<stop offset="0.49698" stop-color="#BD62B6"/>
<stop offset="1" stop-color="#6658C5"/>
</linearGradient>
</defs>
</svg>
