<svg width="256" height="48" viewBox="0 0 256 48" fill="none" xmlns="http://www.w3.org/2000/svg">
<g clip-path="url(#clip0)">
<path d="M31.0628 0.937261L16 16H24.08C29.52 16 32 21.1199 32 24.0001V46.7201C32 47.4269 32.573 48.0001 33.28 48.0001H46.64C47.347 48.0001 47.92 47.4289 47.921 46.7221C47.9302 40.1391 48 26.5861 48 16C48 6.72322 40.6052 0.717305 33.3236 0.0600962C32.4782 -0.0161916 31.6628 0.337145 31.0628 0.937261Z" fill="url(#paint0_linear)"/>
<path fill-rule="evenodd" clip-rule="evenodd" d="M0 1.28C0 0.573076 0.573076 0 1.28 0H2.88C3.58692 0 4.16 0.573076 4.16 1.28V14.72C4.16 15.4269 3.58692 16 2.88 16H1.28C0.573074 16 0 15.4269 0 14.72V1.28ZM7.2 0C6.49308 0 5.92 0.573076 5.92 1.28V14.72C5.92 15.4269 6.49308 16 7.2 16H8.8C9.50692 16 10.08 15.4269 10.08 14.72V1.28C10.08 0.573076 9.50692 0 8.8 0H7.2ZM13.12 0C12.4131 0 11.84 0.573076 11.84 1.28V14.72C11.84 15.4269 12.4131 16 13.12 16H16L12.5898 19.4102C12.1097 19.8903 11.84 20.5414 11.84 21.2204V46.72C11.84 47.427 12.4131 48 13.12 48H14.72C15.4269 48 16 47.427 16 46.72V16V1.28C16 0.573076 15.4269 0 14.72 0H13.12ZM0.749806 31.2502C0.269714 31.7302 0 32.3814 0 33.0604V46.72C0 47.427 0.573074 48 1.28 48H2.88C3.58692 48 4.16 47.427 4.16 46.72V28.6126C4.16 28.3274 3.81532 28.1846 3.61372 28.3862L0.749806 31.2502ZM5.92 27.1404C5.92 26.4614 6.18972 25.8102 6.6698 25.3302L9.53372 22.4662C9.73532 22.2646 10.08 22.4074 10.08 22.6926V46.72C10.08 47.427 9.50692 48 8.8 48H7.2C6.49308 48 5.92 47.427 5.92 46.72V27.1404Z" fill="#1B1B42"/>
<path d="M72.0768 36.9765V11.4717H65.8614V36.9765H72.0768Z" fill="#1B1B42"/>
<path d="M82.5294 17.7227H76.564V36.9763H82.6724V27.5101C82.6724 23.4381 85.6728 22.1521 88.2806 22.1521C91.2096 22.1521 92.9956 23.3665 92.9956 26.4029V36.9763H99.104V24.4025C99.104 19.4373 95.5318 17.2583 90.7096 17.2583C87.459 17.2583 84.8156 18.1513 82.708 20.1517H82.5294V17.7227Z" fill="#1B1B42"/>
<path d="M114.68 14.6865C115.752 14.6865 116.287 14.7579 116.787 14.8294V10.5071C116.287 10.4357 115.359 10.2571 113.537 10.2571C108.179 10.2571 105.035 11.6502 105.035 16.3654V17.7228H101.713V21.652H105.035V37.012H111.144V21.652H116.359V17.7228H111.144V17.1155C111.144 14.9008 112.68 14.6865 114.68 14.6865Z" fill="#1B1B42"/>
<path d="M119.018 17.7228V36.9764H125.126V28.5462C125.126 24.0454 128.698 23.0094 132.056 23.0094C133.234 23.0094 134.342 23.188 135.128 23.3666V17.437C134.628 17.2941 133.913 17.2227 133.27 17.2227C129.591 17.2227 127.055 18.2228 125.162 20.259H124.983V17.7228H119.018Z" fill="#1B1B42"/>
<path d="M159.116 33.8685V22.9737C159.116 18.3656 154.723 17.0439 148.543 17.0439C142.863 17.0439 137.898 18.6514 137.755 23.4737H144.185C144.328 21.8663 146.185 21.1875 148.579 21.1875C151.543 21.1875 152.758 21.9021 152.758 22.9737C152.758 23.9739 152.079 24.4025 150.543 24.5453L142.577 25.3669C139.077 25.7241 136.469 27.2601 136.469 31.4395C136.469 35.7975 140.327 37.6907 144.399 37.6907C148.078 37.6907 151.258 36.6191 153.151 34.2615V34.9045C153.151 35.9047 153.365 36.6547 153.687 36.9763H159.652V36.7619C159.152 36.1547 159.116 34.9759 159.116 33.8685ZM153.008 28.5819C153.008 32.4755 148.936 33.7613 146.221 33.7613C144.221 33.7613 142.792 33.1541 142.792 31.4037C142.792 29.7963 143.899 29.1891 145.542 28.9747L151.222 28.1531C151.865 28.0817 152.615 27.9389 153.008 27.6531V28.5819Z" fill="#1B1B42"/>
<path d="M174.396 33.0827C170.752 33.0827 168.645 31.0465 168.645 27.3673C168.645 23.6881 170.752 21.6519 174.396 21.6519C178.289 21.6519 179.575 23.3309 179.897 25.0097H186.577C185.969 20.4731 182.79 17.0439 174.396 17.0439C166.609 17.0439 162.322 20.8303 162.322 27.3673C162.322 33.8685 166.609 37.6907 174.396 37.6907C182.79 37.6907 186.041 34.2257 186.648 29.6177H179.933C179.611 31.4037 178.289 33.0827 174.396 33.0827Z" fill="#1B1B42"/>
<path d="M201.332 17.0439C193.33 17.0439 189.043 20.8661 189.043 27.3673C189.043 33.8685 193.33 37.6907 201.332 37.6907C209.332 37.6907 213.62 33.8685 213.62 27.3673C213.62 20.8661 209.332 17.0439 201.332 17.0439ZM201.332 33.0827C197.473 33.0827 195.366 31.0465 195.366 27.3673C195.366 23.6881 197.473 21.6519 201.332 21.6519C205.19 21.6519 207.296 23.6881 207.296 27.3673C207.296 31.0465 205.19 33.0827 201.332 33.0827Z" fill="#1B1B42"/>
<path d="M231.69 23.4737H238.12C237.94 18.6514 232.976 17.0439 226.796 17.0439C220.76 17.0439 216.186 18.5799 216.186 23.1523C216.186 27.1173 218.902 28.3675 223.01 28.9033L229.618 29.7607C231.44 30.0107 232.19 30.4035 232.19 31.5467C232.19 32.7969 230.796 33.6185 227.368 33.6185C224.188 33.6185 222.224 32.9397 222.08 30.6893H215.508C215.722 36.3333 220.652 37.6907 227.26 37.6907C234.476 37.6907 238.87 36.2261 238.87 31.2251C238.87 26.9387 236.298 25.6885 232.118 25.2241L225.082 24.4025C223.26 24.1881 222.652 23.7953 222.652 22.7951C222.652 21.7591 223.902 21.0447 226.76 21.0447C229.546 21.0447 231.546 21.6519 231.69 23.4737Z" fill="#1B1B42"/>
<path d="M251.568 32.3325C250.032 32.3325 249.176 31.9039 249.176 30.4751V21.6519H254.39V17.7227H249.176V12.4717H243.066V17.7227H239.744V21.6519H243.066V31.5823C243.066 35.7975 244.852 37.2977 250.354 37.2977C251.818 37.2977 253.534 37.1191 254.354 36.9763V32.1539C253.498 32.2967 252.248 32.3325 251.568 32.3325Z" fill="#1B1B42"/>
</g>
<defs>
<linearGradient id="paint0_linear" x1="48" y1="7.29169e-06" x2="4.9174" y2="14.0737" gradientUnits="userSpaceOnUse">
<stop stop-color="#E7B28C"/>
<stop offset="0.49698" stop-color="#BD62B6"/>
<stop offset="1" stop-color="#6658C5"/>
</linearGradient>
<clipPath id="clip0">
<rect width="256" height="48" fill="white"/>
</clipPath>
</defs>
</svg>
