<svg width="320" height="55" viewBox="0 0 320 55" fill="none" xmlns="http://www.w3.org/2000/svg">
<g clip-path="url(#clip0)">
<path d="M120.097 18.7329C115.264 18.7329 112.086 21.1825 110.166 24.1618L108.71 19.5274H103.811V49.0556H111.027V32.8349C111.027 28.4653 113.742 25.2211 118.244 25.2211C121.819 25.2211 123.275 27.5384 123.275 31.246V49.0556H130.492V30.5839C130.492 23.0363 126.851 18.7329 120.097 18.7329Z" fill="#1C202C"/>
<path d="M139.715 49.0556H146.932V25.6846H155.009V19.5274H146.866V15.7903C146.866 12.4138 148.786 10.6262 151.566 10.6262C153.354 10.6262 154.48 11.0897 155.87 11.8841L158.452 6.72C155.936 5.06483 153.486 4.13793 150.176 4.13793C143.489 4.13793 139.715 8.70621 139.715 15.3931V19.5274H134.22V25.6846H139.715V49.0556Z" fill="#1C202C"/>
<path d="M173.664 18.8653C169.824 18.8653 166.845 20.5867 165.123 23.897L163.733 19.5274H158.834V49.0556H166.05V32.9674C166.05 28.2667 168.897 25.5522 173.068 25.5522C174.591 25.5522 175.783 25.817 176.908 26.2143L178.762 20.1232C177.371 19.3287 175.716 18.8653 173.664 18.8653Z" fill="#1C202C"/>
<path d="M193.547 18.9977C189.574 18.9977 185.536 20.057 181.166 22.0432L183.218 27.5384C186.264 26.0818 189.508 25.1549 192.421 25.1549C196.195 25.1549 198.446 26.6777 198.446 29.7232V31.0474C197.387 30.9811 196.261 30.9149 194.738 30.9149C185.734 30.9149 179.776 34.6225 179.776 41.3756C179.776 46.606 183.616 49.6515 189.045 49.6515C193.878 49.6515 197.387 47.7315 199.571 44.6198L200.896 49.0556H205.729V29.988C205.729 22.8377 201.094 18.9977 193.547 18.9977ZM191.163 44.2225C188.515 44.2225 186.926 42.9646 186.926 40.6474C186.926 37.4032 189.971 35.5494 195.202 35.5494C196.526 35.5494 197.453 35.6156 198.645 35.748C198.512 41.1108 195.4 44.2225 191.163 44.2225Z" fill="#1C202C"/>
<path d="M225.549 49.9163C230.78 49.9163 234.156 48.3936 237.467 45.348L233.825 40.5149C231.64 42.5674 229.456 43.5605 226.278 43.5605C221.511 43.5605 217.605 40.1177 217.605 34.2915C217.605 28.6639 221.445 25.0225 226.41 25.0225C229.257 25.0225 231.243 25.7508 233.362 27.5384L236.871 22.7053C233.759 19.9908 230.184 18.7329 225.88 18.7329C217.406 18.7329 210.322 24.6253 210.322 34.2915C210.322 44.6198 218.068 49.9163 225.549 49.9163Z" fill="#1C202C"/>
<path d="M254.425 49.9163C263.694 49.9163 270.315 43.428 270.315 34.2915C270.315 25.1549 263.694 18.7329 254.425 18.7329C245.156 18.7329 238.602 25.1549 238.602 34.2915C238.602 43.428 245.156 49.9163 254.425 49.9163ZM254.425 43.4942C249.394 43.4942 245.885 39.7205 245.885 34.2915C245.885 28.8625 249.394 25.0887 254.425 25.0887C259.523 25.0887 262.966 28.8625 262.966 34.2915C262.966 39.7205 259.523 43.4942 254.425 43.4942Z" fill="#1C202C"/>
<path d="M283.758 49.7177C290.246 49.7177 294.682 46.2749 294.682 40.7798C294.682 35.8805 290.974 33.4308 285.81 31.5108C282.632 30.3853 280.447 29.2598 280.447 27.3398C280.447 25.486 282.367 24.8239 284.618 24.8239C286.605 24.8239 288.988 25.4198 291.173 26.5453L293.689 21.7122C290.511 19.8584 287.399 19.0639 284.023 19.0639C278.395 19.0639 273.562 21.9108 273.562 27.3398C273.562 32.1729 277.203 34.6225 281.904 36.4101C284.817 37.5356 287.598 38.5949 287.598 40.7798C287.598 42.6336 285.876 43.8253 283.228 43.8253C280.447 43.8253 277.667 42.9646 275.151 41.3756L272.304 46.4736C275.747 48.6584 279.388 49.7177 283.758 49.7177Z" fill="#1C202C"/>
<path d="M310.93 49.7177C314.307 49.7177 317.154 48.7246 319.868 47.0032L317.551 41.5743C315.896 42.6336 314.307 43.097 312.585 43.097C310.665 43.097 309.341 42.2363 309.341 39.3232V25.6846H318.478V19.5274H309.341V10.0598H302.323L302.125 19.5274H296.894V25.2874L302.125 25.6846V40.0515C302.125 46.6722 305.634 49.7177 310.93 49.7177Z" fill="#1C202C"/>
<path d="M82.2989 19.5402V25.2874L86.4368 25.5172L86.4749 40.0791C86.5361 53.8832 99.3104 48.366 99.3104 48.366L98.3908 42.8487C98.3908 42.8487 97.366 43.0605 97.0704 43.1246C94.7127 43.6365 93.7196 42.5784 93.7527 39.3103V19.5274H86.5361L82.2989 19.5402Z" fill="#1C202C"/>
<path d="M90.1149 13.7931C92.8869 13.7931 94.7126 11.8126 94.7126 9.26612C94.7126 6.64897 92.9545 4.5977 90.1149 4.5977C87.2754 4.5977 85.5172 6.64897 85.5172 9.1954C85.5172 11.7418 87.2754 13.7931 90.1149 13.7931Z" fill="#1C202C"/>
<path d="M29.4253 40.2327C45.6764 40.2327 58.8506 35.2924 58.8506 29.1982V25.52C58.8506 25.52 58.7108 24.8776 58.3908 24.8304C58.0887 24.7858 57.7586 25.2902 57.7586 25.2902C54.2837 29.9323 42.9146 33.3361 29.4253 33.3361C15.936 33.3361 4.56669 29.9323 1.09193 25.2902C1.09193 25.2902 0.761766 24.7858 0.45977 24.8304C0.139545 24.8776 0 25.52 0 25.52V29.1982C0 35.2924 13.1742 40.2327 29.4253 40.2327Z" fill="#1C202C"/>
<path d="M33.5632 26.4396C49.8143 26.4396 62.9885 21.4993 62.9885 15.4051V11.7269C62.9885 11.7269 62.8487 11.0845 62.5287 11.0373C62.2267 10.9927 61.8966 11.4971 61.8966 11.4971C58.4216 16.1392 47.0524 19.543 33.5632 19.543C20.0739 19.543 8.70461 16.1392 5.22985 11.4971C5.22985 11.4971 4.89969 10.9927 4.59771 11.0373C4.27748 11.0845 4.13794 11.7269 4.13794 11.7269V15.4051C4.13794 21.4993 17.3121 26.4396 33.5632 26.4396Z" fill="#1C202C"/>
<path d="M33.5632 54.0257C49.8143 54.0257 62.9885 49.0855 62.9885 42.9913V39.3131C62.9885 39.3131 62.8487 38.6707 62.5287 38.6235C62.2267 38.5789 61.8966 39.0833 61.8966 39.0833C58.4216 43.7254 47.0524 47.1292 33.5632 47.1292C20.0739 47.1292 8.70461 43.7254 5.22985 39.0833C5.22985 39.0833 4.89969 38.5789 4.59771 38.6235C4.27748 38.6707 4.13794 39.3131 4.13794 39.3131V42.9913C4.13794 49.0855 17.3121 54.0257 33.5632 54.0257Z" fill="#1C202C"/>
<path d="M62.9885 11.0345C62.9885 17.1286 49.8143 22.069 33.5632 22.069C17.3121 22.069 4.13794 17.1286 4.13794 11.0345C4.13794 4.94032 17.3121 0 33.5632 0C49.8143 0 62.9885 4.94032 62.9885 11.0345Z" fill="#1C202C"/>
</g>
<defs>
<clipPath id="clip0">
<rect width="320" height="54.2529" fill="white"/>
</clipPath>
</defs>
</svg>
