<svg width="1024" height="192" viewBox="0 0 1024 192" fill="none" xmlns="http://www.w3.org/2000/svg">
<style>
    path.text, path.i {
        fill: #1b1b42;
    }
    @media (prefers-color-scheme: dark) {
        path.text {
          fill: #ebebf2;
        }
        path.i {
          fill: #ffffff;
        }
    }
</style>
<g clip-path="url(#clip0_301_42)">
<path d="M124.251 3.54982L64 63.8008H96.32C118.08 63.8008 128 84.2803 128 95.8011V186.681C128 189.508 130.292 191.801 133.12 191.801H186.56C189.388 191.801 191.68 189.516 191.684 186.689C191.721 160.357 192 106.145 192 63.8008C192 26.6937 162.421 2.67 133.294 0.0411659C129.913 -0.263985 126.651 1.14936 124.251 3.54982Z" fill="url(#paint0_linear_301_42)"/>
<path fill-rule="evenodd" clip-rule="evenodd" d="M0 5.12C0 2.2923 2.2923 0 5.12 0H11.52C14.3477 0 16.64 2.2923 16.64 5.12V58.88C16.64 61.7077 14.3477 64 11.52 64H5.11999C2.2923 64 0 61.7077 0 58.88V5.12ZM28.8 0C25.9723 0 23.68 2.2923 23.68 5.12V58.88C23.68 61.7077 25.9723 64 28.8 64H35.2C38.0277 64 40.32 61.7077 40.32 58.88V5.12C40.32 2.2923 38.0277 0 35.2 0H28.8ZM52.48 0C49.6523 0 47.36 2.2923 47.36 5.12V58.88C47.36 61.7077 49.6523 64 52.48 64H64L50.3592 77.6408C48.4389 79.5611 47.36 82.1656 47.36 84.8816V186.88C47.36 189.708 49.6523 192 52.48 192H58.88C61.7077 192 64 189.708 64 186.88V64V5.12C64 2.2923 61.7077 0 58.88 0H52.48ZM2.99922 125.001C1.07886 126.921 0 129.526 0 132.242V186.88C0 189.708 2.2923 192 5.11999 192H11.52C14.3477 192 16.64 189.708 16.64 186.88V114.45C16.64 113.31 15.2613 112.738 14.4549 113.545L2.99922 125.001ZM23.68 108.562C23.68 105.846 24.7589 103.241 26.6792 101.321L38.1349 89.8648C38.9413 89.0584 40.32 89.6296 40.32 90.7704V186.88C40.32 189.708 38.0277 192 35.2 192H28.8C25.9723 192 23.68 189.708 23.68 186.88V108.562Z" class="i"/>
<path d="M279.664 145.728V48.624H256V145.728H279.664Z" class="text"/>
<path d="M319.46 72.424H296.748V145.728H320.004V109.688C320.004 94.184 331.428 89.288 341.356 89.288C352.508 89.288 359.308 93.912 359.308 105.472V145.728H382.564V97.856C382.564 78.952 368.964 70.656 350.604 70.656C338.228 70.656 328.164 74.056 320.14 81.672H319.46V72.424Z" class="text"/>
<path d="M441.866 60.864C445.946 60.864 447.986 61.136 449.89 61.408V44.952C447.986 44.68 444.45 44 437.514 44C417.114 44 405.146 49.304 405.146 67.256V72.424H392.498V87.384H405.146V145.864H428.402V87.384H448.258V72.424H428.402V70.112C428.402 61.68 434.25 60.864 441.866 60.864Z" class="text"/>
<path d="M458.381 72.424V145.728H481.637V113.632C481.637 96.496 495.237 92.552 508.021 92.552C512.509 92.552 516.725 93.232 519.717 93.912V71.336C517.813 70.792 515.093 70.52 512.645 70.52C498.637 70.52 488.981 74.328 481.773 82.08H481.093V72.424H458.381Z" class="text"/>
<path d="M611.048 133.896V92.416C611.048 74.872 594.32 69.84 570.792 69.84C549.168 69.84 530.264 75.96 529.72 94.32H554.2C554.744 88.2 561.816 85.616 570.928 85.616C582.216 85.616 586.84 88.336 586.84 92.416C586.84 96.224 584.256 97.856 578.408 98.4L548.08 101.528C534.752 102.888 524.824 108.736 524.824 124.648C524.824 141.24 539.512 148.448 555.016 148.448C569.024 148.448 581.128 144.368 588.336 135.392V137.84C588.336 141.648 589.152 144.504 590.376 145.728H613.088V144.912C611.184 142.6 611.048 138.112 611.048 133.896ZM587.792 113.768C587.792 128.592 572.288 133.488 561.952 133.488C554.336 133.488 548.896 131.176 548.896 124.512C548.896 118.392 553.112 116.08 559.368 115.264L580.992 112.136C583.44 111.864 586.296 111.32 587.792 110.232V113.768Z" class="text"/>
<path d="M669.222 130.904C655.35 130.904 647.326 123.152 647.326 109.144C647.326 95.136 655.35 87.384 669.222 87.384C684.046 87.384 688.942 93.776 690.166 100.168H715.598C713.286 82.896 701.182 69.84 669.222 69.84C639.574 69.84 623.254 84.256 623.254 109.144C623.254 133.896 639.574 148.448 669.222 148.448C701.182 148.448 713.558 135.256 715.87 117.712H690.302C689.078 124.512 684.046 130.904 669.222 130.904Z" class="text"/>
<path d="M771.773 69.84C741.309 69.84 724.989 84.392 724.989 109.144C724.989 133.896 741.309 148.448 771.773 148.448C802.237 148.448 818.557 133.896 818.557 109.144C818.557 84.392 802.237 69.84 771.773 69.84ZM771.773 130.904C757.085 130.904 749.061 123.152 749.061 109.144C749.061 95.136 757.085 87.384 771.773 87.384C786.461 87.384 794.485 95.136 794.485 109.144C794.485 123.152 786.461 130.904 771.773 130.904Z" class="text"/>
<path d="M887.357 94.32H911.837C911.157 75.96 892.253 69.84 868.725 69.84C845.741 69.84 828.333 75.688 828.333 93.096C828.333 108.192 838.669 112.952 854.309 114.992L879.469 118.256C886.405 119.208 889.261 120.704 889.261 125.056C889.261 129.816 883.957 132.944 870.901 132.944C858.797 132.944 851.317 130.36 850.773 121.792H825.749C826.565 143.28 845.333 148.448 870.493 148.448C897.965 148.448 914.693 142.872 914.693 123.832C914.693 107.512 904.901 102.752 888.989 100.984L862.197 97.856C855.261 97.04 852.949 95.544 852.949 91.736C852.949 87.792 857.709 85.072 868.589 85.072C879.197 85.072 886.813 87.384 887.357 94.32Z" class="text"/>
<path d="M963.041 128.048C957.193 128.048 953.929 126.416 953.929 120.976V87.384H973.785V72.424H953.929V52.432H930.673V72.424H918.025V87.384H930.673V125.192C930.673 141.24 937.473 146.952 958.417 146.952C963.993 146.952 970.521 146.272 973.649 145.728V127.368C970.385 127.912 965.625 128.048 963.041 128.048Z" class="text"/>
</g>
<defs>
<linearGradient id="paint0_linear_301_42" x1="192" y1="-0.19919" x2="19.6696" y2="56.0954" gradientUnits="userSpaceOnUse">
<stop stop-color="#E7B28C"/>
<stop offset="0.49698" stop-color="#BD62B6"/>
<stop offset="1" stop-color="#6658C5"/>
</linearGradient>
<clipPath id="clip0_301_42">
<rect width="1024" height="192" fill="white"/>
</clipPath>
</defs>
</svg>
