<svg width="696" height="118" viewBox="0 0 696 118" fill="none" xmlns="http://www.w3.org/2000/svg">
<path d="M261.212 40.744C250.7 40.744 243.788 46.072 239.612 52.552L236.444 42.472H225.788V106.696H241.484V71.416C241.484 61.912 247.388 54.856 257.18 54.856C264.956 54.856 268.124 59.896 268.124 67.96V106.696H283.82V66.52C283.82 50.104 275.9 40.744 261.212 40.744Z" fill="#1C202C"/>
<path d="M303.881 106.696H319.577V55.864H337.145V42.472H319.433V34.344C319.433 27 323.609 23.112 329.657 23.112C333.545 23.112 335.993 24.12 339.017 25.848L344.633 14.616C339.161 11.016 333.833 9 326.633 9C312.089 9 303.881 18.936 303.881 33.48V42.472H291.929V55.864H303.881V106.696Z" fill="#1C202C"/>
<path d="M377.719 41.032C369.367 41.032 362.887 44.776 359.143 51.976L356.119 42.472H345.463V106.696H361.159V71.704C361.159 61.48 367.351 55.576 376.423 55.576C379.735 55.576 382.327 56.152 384.775 57.016L388.807 43.768C385.783 42.04 382.183 41.032 377.719 41.032Z" fill="#1C202C"/>
<path d="M420.964 41.32C412.324 41.32 403.54 43.624 394.036 47.944L398.5 59.896C405.124 56.728 412.18 54.712 418.516 54.712C426.724 54.712 431.62 58.024 431.62 64.648V67.528C429.316 67.384 426.868 67.24 423.556 67.24C403.972 67.24 391.012 75.304 391.012 89.992C391.012 101.368 399.364 107.992 411.172 107.992C421.684 107.992 429.316 103.816 434.068 97.048L436.948 106.696H447.46V65.224C447.46 49.672 437.38 41.32 420.964 41.32ZM415.78 96.184C410.02 96.184 406.564 93.448 406.564 88.408C406.564 81.352 413.188 77.32 424.564 77.32C427.444 77.32 429.46 77.464 432.052 77.752C431.764 89.416 424.996 96.184 415.78 96.184Z" fill="#1C202C"/>
<path d="M490.57 108.568C501.946 108.568 509.29 105.256 516.49 98.632L508.57 88.12C503.818 92.584 499.066 94.744 492.154 94.744C481.786 94.744 473.29 87.256 473.29 74.584C473.29 62.344 481.642 54.424 492.442 54.424C498.634 54.424 502.954 56.008 507.562 59.896L515.194 49.384C508.426 43.48 500.65 40.744 491.29 40.744C472.858 40.744 457.45 53.56 457.45 74.584C457.45 97.048 474.298 108.568 490.57 108.568Z" fill="#1C202C"/>
<path d="M553.375 108.568C573.535 108.568 587.935 94.456 587.935 74.584C587.935 54.712 573.535 40.744 553.375 40.744C533.215 40.744 518.959 54.712 518.959 74.584C518.959 94.456 533.215 108.568 553.375 108.568ZM553.375 94.6C542.431 94.6 534.799 86.392 534.799 74.584C534.799 62.776 542.431 54.568 553.375 54.568C564.463 54.568 571.951 62.776 571.951 74.584C571.951 86.392 564.463 94.6 553.375 94.6Z" fill="#1C202C"/>
<path d="M617.173 108.136C631.285 108.136 640.933 100.648 640.933 88.696C640.933 78.04 632.869 72.712 621.637 68.536C614.725 66.088 609.973 63.64 609.973 59.464C609.973 55.432 614.149 53.992 619.045 53.992C623.365 53.992 628.549 55.288 633.301 57.736L638.773 47.224C631.861 43.192 625.093 41.464 617.749 41.464C605.509 41.464 594.997 47.656 594.997 59.464C594.997 69.976 602.917 75.304 613.141 79.192C619.477 81.64 625.525 83.944 625.525 88.696C625.525 92.728 621.781 95.32 616.021 95.32C609.973 95.32 603.925 93.448 598.453 89.992L592.261 101.08C599.749 105.832 607.669 108.136 617.173 108.136Z" fill="#1C202C"/>
<path d="M676.273 108.136C683.617 108.136 689.809 105.976 695.713 102.232L690.673 90.424C687.073 92.728 683.617 93.736 679.873 93.736C675.697 93.736 672.817 91.864 672.817 85.528V55.864H692.689V42.472H672.817V21.88H657.553L657.121 42.472H645.745V55L657.121 55.864V87.112C657.121 101.512 664.753 108.136 676.273 108.136Z" fill="#1C202C"/>
<path d="M179 42.5V55L188 55.5L188.083 87.172C188.216 117.196 216 105.196 216 105.196L214 93.196C214 93.196 211.771 93.6565 211.128 93.796C206 94.9094 203.84 92.608 203.912 85.5V42.472H188.216L179 42.5Z" fill="#1C202C"/>
<path d="M196 30C202.029 30 206 25.6923 206 20.1538C206 14.4615 202.176 10 196 10C189.824 10 186 14.4615 186 20C186 25.5385 189.824 30 196 30Z" fill="#1C202C"/>
<path d="M64 87.5061C99.3462 87.5061 128 76.7609 128 63.5061V55.5061C128 55.5061 127.696 54.1088 127 54.0061C126.343 53.9092 125.625 55.0061 125.625 55.0061C118.067 65.1028 93.3392 72.5061 64 72.5061C34.6608 72.5061 9.93255 65.1028 2.37494 55.0061C2.37494 55.0061 1.65684 53.9092 1 54.0061C0.303511 54.1088 0 55.5061 0 55.5061V63.5061C0 76.7609 28.6538 87.5061 64 87.5061Z" fill="#1C202C"/>
<path d="M73 57.5061C108.346 57.5061 137 46.7609 137 33.5061V25.5061C137 25.5061 136.696 24.1088 136 24.0061C135.343 23.9092 134.625 25.0061 134.625 25.0061C127.067 35.1028 102.339 42.5061 73 42.5061C43.6608 42.5061 18.9325 35.1028 11.3749 25.0061C11.3749 25.0061 10.6568 23.9092 10 24.0061C9.30351 24.1088 9 25.5061 9 25.5061V33.5061C9 46.7609 37.6538 57.5061 73 57.5061Z" fill="#1C202C"/>
<path d="M73 117.506C108.346 117.506 137 106.761 137 93.5061V85.5061C137 85.5061 136.696 84.1088 136 84.0061C135.343 83.9092 134.625 85.0061 134.625 85.0061C127.067 95.1028 102.339 102.506 73 102.506C43.6608 102.506 18.9325 95.1028 11.3749 85.0061C11.3749 85.0061 10.6568 83.9092 10 84.0061C9.30351 84.1088 9 85.5061 9 85.5061V93.5061C9 106.761 37.6538 117.506 73 117.506Z" fill="#1C202C"/>
<path d="M137 24C137 37.2548 108.346 48 73 48C37.6538 48 9 37.2548 9 24C9 10.7452 37.6538 0 73 0C108.346 0 137 10.7452 137 24Z" fill="#1C202C"/>
</svg>
